<svg width="128" height="50" viewBox="0 0 128 50" fill="none" xmlns="http://www.w3.org/2000/svg">
<g clip-path="url(#clip0_2219:53120)">
<path d="M122.193 12.1021H25.4912C22.6154 12.1021 20.2842 14.4333 20.2842 17.3091V42.6003C20.2842 45.4761 22.6154 47.8073 25.4912 47.8073H122.193C125.069 47.8073 127.4 45.4761 127.4 42.6003V17.3091C127.4 14.4333 125.069 12.1021 122.193 12.1021Z" fill="#F3F3F3"/>
<path d="M40.3097 12.5971C40.2931 12.4144 40.1656 12.2622 39.9918 12.2142C39.9386 12.1994 34.5487 10.6911 29.3354 8.02748C24.795 5.70584 20.6684 0.413417 20.6275 0.359958C20.4623 0.146668 20.1073 0.147214 19.9432 0.359958C19.9012 0.413417 15.7783 5.70311 11.2347 8.02748C6.02406 10.689 0.630491 12.1994 0.577233 12.2142C0.402397 12.2622 0.276514 12.4149 0.258762 12.5971C0.248003 12.7084 -0.725702 23.8655 5.70236 35.3624C11.8878 46.4294 19.8152 49.1624 20.1498 49.2737C20.1933 49.2878 20.2396 49.2949 20.2848 49.2949C20.33 49.2949 20.3762 49.2878 20.4198 49.2737C20.7544 49.1624 28.6812 46.4294 34.8678 35.3635C41.2947 23.8655 40.321 12.7084 40.3097 12.5971Z" fill="#5555C4"/>
<path d="M51.2946 20.7827C53.1155 20.7827 54.4946 21.7735 54.8428 23.3669L53.0218 23.7418C52.8879 22.8983 52.1515 22.3493 51.2544 22.3493C50.3439 22.3493 49.7949 22.8581 49.7949 23.4606C49.7949 23.9159 49.9958 24.2372 50.692 24.3711L52.6201 24.7594C54.0796 25.0673 54.9767 25.9377 54.9767 27.3302C54.9767 29.0708 53.544 30.1554 51.4151 30.1554C49.5405 30.1554 47.8936 29.285 47.666 27.4908L49.5807 27.1026C49.8217 28.1202 50.5715 28.562 51.5891 28.562C52.6335 28.562 53.1825 28.0666 53.1825 27.4239C53.1825 26.9151 52.9415 26.6071 52.1381 26.4465L50.2368 26.0849C49.1656 25.8573 47.8802 25.2682 47.8802 23.5142C47.8802 21.9074 49.1924 20.7827 51.2946 20.7827ZM59.6094 20.7827C61.4304 20.7827 62.8095 21.7735 63.1576 23.3669L61.3367 23.7418C61.2028 22.8983 60.4663 22.3493 59.5693 22.3493C58.6588 22.3493 58.1098 22.8581 58.1098 23.4606C58.1098 23.9159 58.3106 24.2372 59.0069 24.3711L60.935 24.7594C62.3944 25.0673 63.2915 25.9377 63.2915 27.3302C63.2915 29.0708 61.8589 30.1554 59.7299 30.1554C57.8554 30.1554 56.2085 29.285 55.9809 27.4908L57.8956 27.1026C58.1366 28.1202 58.8864 28.562 59.904 28.562C60.9484 28.562 61.4973 28.0666 61.4973 27.4239C61.4973 26.9151 61.2563 26.6071 60.453 26.4465L58.5517 26.0849C57.4805 25.8573 56.1951 25.2682 56.1951 23.5142C56.1951 21.9074 57.5073 20.7827 59.6094 20.7827ZM71.352 28.3076V29.9545H64.8983V20.9836H66.7192V28.3076H71.352Z" fill="#292B8D"/>
<path d="M51.2946 20.7827C53.1155 20.7827 54.4946 21.7735 54.8428 23.3669L53.0218 23.7418C52.8879 22.8983 52.1515 22.3493 51.2544 22.3493C50.3439 22.3493 49.7949 22.8581 49.7949 23.4606C49.7949 23.9159 49.9958 24.2372 50.692 24.3711L52.6201 24.7594C54.0796 25.0673 54.9767 25.9377 54.9767 27.3302C54.9767 29.0708 53.544 30.1554 51.4151 30.1554C49.5405 30.1554 47.8936 29.285 47.666 27.4908L49.5807 27.1026C49.8217 28.1202 50.5715 28.562 51.5891 28.562C52.6335 28.562 53.1825 28.0666 53.1825 27.4239C53.1825 26.9151 52.9415 26.6071 52.1381 26.4465L50.2368 26.0849C49.1656 25.8573 47.8802 25.2682 47.8802 23.5142C47.8802 21.9074 49.1924 20.7827 51.2946 20.7827ZM59.6094 20.7827C61.4304 20.7827 62.8095 21.7735 63.1576 23.3669L61.3367 23.7418C61.2028 22.8983 60.4663 22.3493 59.5693 22.3493C58.6588 22.3493 58.1098 22.8581 58.1098 23.4606C58.1098 23.9159 58.3106 24.2372 59.0069 24.3711L60.935 24.7594C62.3944 25.0673 63.2915 25.9377 63.2915 27.3302C63.2915 29.0708 61.8589 30.1554 59.7299 30.1554C57.8554 30.1554 56.2085 29.285 55.9809 27.4908L57.8956 27.1026C58.1366 28.1202 58.8864 28.562 59.904 28.562C60.9484 28.562 61.4973 28.0666 61.4973 27.4239C61.4973 26.9151 61.2563 26.6071 60.453 26.4465L58.5517 26.0849C57.4805 25.8573 56.1951 25.2682 56.1951 23.5142C56.1951 21.9074 57.5073 20.7827 59.6094 20.7827ZM71.352 28.3076V29.9545H64.8983V20.9836H66.7192V28.3076H71.352Z" fill="#313391"/>
<path fill-rule="evenodd" clip-rule="evenodd" d="M49.3768 32.3127C50.3736 32.3127 51.0728 32.8631 51.2439 33.6814L50.6562 33.8153C50.5447 33.2127 50.0463 32.8259 49.3619 32.8259C48.6924 32.8259 48.2312 33.1904 48.2312 33.726C48.2312 34.1723 48.5139 34.3732 48.9825 34.4699L50.0686 34.7153C50.7604 34.8641 51.3257 35.2137 51.3257 36.0097C51.3257 36.9172 50.5893 37.4899 49.4735 37.4899C48.4172 37.4899 47.5692 36.9469 47.4502 36.0022L48.0676 35.8758C48.1792 36.575 48.7519 36.9692 49.5256 36.9692C50.2843 36.9692 50.7381 36.5899 50.7381 36.0394C50.7381 35.5708 50.4851 35.3848 49.9272 35.2584L48.804 35.0129C48.1643 34.8715 47.6064 34.5368 47.6064 33.7409C47.6064 32.8854 48.3131 32.3127 49.3768 32.3127ZM55.7442 35.4666V35.6749H52.5977C52.6498 36.5006 53.2746 36.9915 53.9069 36.9915C54.4276 36.9915 54.8962 36.7907 55.1566 36.2031L55.6624 36.3221C55.3723 37.0883 54.7326 37.4899 53.9069 37.4899C52.9324 37.4899 52.0472 36.7386 52.0472 35.5708C52.0472 34.3955 52.9324 33.6367 53.9441 33.6367C54.9334 33.6367 55.707 34.3732 55.7442 35.4666ZM53.9441 34.1351C53.349 34.1351 52.7316 34.5294 52.62 35.2509H55.1715C55.0673 34.5294 54.5541 34.1351 53.9441 34.1351ZM58.2957 36.9618C58.8387 36.9618 59.3296 36.6866 59.5082 36.1361L60.0289 36.2774C59.828 37.0287 59.1065 37.4899 58.2957 37.4899C57.2617 37.4899 56.3839 36.7312 56.3839 35.5633C56.3839 34.4104 57.2617 33.6367 58.2957 33.6367C59.099 33.6367 59.8131 34.1054 60.0363 34.8567L59.4933 35.0203C59.3296 34.455 58.8387 34.1574 58.2957 34.1574C57.5444 34.1574 56.9344 34.7228 56.9344 35.5633C56.9344 36.4188 57.5444 36.9618 58.2957 36.9618ZM64.3432 33.726V37.3858H63.7705V36.7907C63.4729 37.2296 62.9969 37.4825 62.3869 37.4825C61.5017 37.4825 60.9141 36.8502 60.9141 35.9204V33.726H61.4868V35.8163C61.4868 36.5006 61.8885 36.9544 62.4985 36.9544C63.2646 36.9544 63.7705 36.4411 63.7705 35.489V33.726H64.3432ZM67.6906 33.6888C67.7799 33.6888 67.8468 33.6888 67.951 33.7186L67.9063 34.2616C67.8394 34.2541 67.7576 34.2541 67.6906 34.2541C66.7162 34.2541 66.2178 34.9906 66.2178 35.9799V37.3932H65.645V33.726H66.2178V34.6261C66.5153 34.0831 67.0137 33.6888 67.6906 33.6888ZM71.9752 35.4666V35.6749H68.8287C68.8808 36.5006 69.5056 36.9915 70.1379 36.9915C70.6586 36.9915 71.1272 36.7907 71.3876 36.2031L71.8934 36.3221C71.6033 37.0883 70.9636 37.4899 70.1379 37.4899C69.1635 37.4899 68.2783 36.7386 68.2783 35.5708C68.2783 34.3955 69.1635 33.6367 70.1751 33.6367C71.1644 33.6367 71.9381 34.3732 71.9752 35.4666ZM70.1751 34.1351C69.58 34.1351 68.9626 34.5294 68.851 35.2509H71.4025C71.2983 34.5294 70.7851 34.1351 70.1751 34.1351ZM77.1674 36.9395C78.0303 36.9395 78.7146 36.4857 78.975 35.6675L79.5403 35.8014C79.2353 36.8428 78.3129 37.4899 77.1674 37.4899C75.7169 37.4899 74.5788 36.3518 74.5788 34.9013C74.5788 33.4508 75.7169 32.3127 77.1674 32.3127C78.3129 32.3127 79.2353 32.9598 79.5403 33.964L78.975 34.1277C78.7221 33.3243 78.0303 32.8631 77.1674 32.8631C76.0516 32.8631 75.1738 33.7483 75.1738 34.9013C75.1738 36.0468 76.0516 36.9395 77.1674 36.9395ZM82.2182 33.6442C83.2968 33.6442 84.1597 34.4327 84.1597 35.5559C84.1597 36.6791 83.2968 37.4825 82.2182 37.4825C81.1247 37.4825 80.2693 36.6791 80.2693 35.5559C80.2693 34.4327 81.1247 33.6442 82.2182 33.6442ZM82.2182 36.9841C82.9695 36.9841 83.6018 36.4039 83.6018 35.5559C83.6018 34.7153 82.9695 34.1426 82.2182 34.1426C81.4594 34.1426 80.8197 34.7153 80.8197 35.5559C80.8197 36.4039 81.4594 36.9841 82.2182 36.9841ZM87.0756 33.6367C87.9608 33.6367 88.5484 34.269 88.5484 35.1988V37.3932H87.9831V35.303C87.9831 34.6186 87.574 34.1574 86.964 34.1574C86.1978 34.1574 85.692 34.6781 85.692 35.6303V37.3932H85.1267V33.726H85.692V34.336C85.9896 33.8897 86.4582 33.6367 87.0756 33.6367ZM91.7173 33.6367C92.6025 33.6367 93.1901 34.269 93.1901 35.1988V37.3932H92.6248V35.303C92.6248 34.6186 92.2157 34.1574 91.6057 34.1574C90.8395 34.1574 90.3337 34.6781 90.3337 35.6303V37.3932H89.7684V33.726H90.3337V34.336C90.6312 33.8897 91.0999 33.6367 91.7173 33.6367ZM97.7723 35.4666V35.6749H94.6258C94.6778 36.5006 95.3027 36.9915 95.935 36.9915C96.4557 36.9915 96.9243 36.7907 97.1846 36.2031L97.6905 36.3221C97.4004 37.0883 96.7606 37.4899 95.935 37.4899C94.9605 37.4899 94.0753 36.7386 94.0753 35.5708C94.0753 34.3955 94.9605 33.6367 95.9722 33.6367C96.9615 33.6367 97.7351 34.3732 97.7723 35.4666ZM95.9722 34.1351C95.3771 34.1351 94.7597 34.5294 94.6481 35.2509H97.1995C97.0954 34.5294 96.5821 34.1351 95.9722 34.1351ZM100.324 36.9618C100.867 36.9618 101.358 36.6866 101.536 36.1361L102.057 36.2774C101.856 37.0287 101.135 37.4899 100.324 37.4899C99.2898 37.4899 98.412 36.7312 98.412 35.5633C98.412 34.4104 99.2898 33.6367 100.324 33.6367C101.127 33.6367 101.841 34.1054 102.064 34.8567L101.521 35.0203C101.358 34.455 100.867 34.1574 100.324 34.1574C99.5724 34.1574 98.9625 34.7228 98.9625 35.5633C98.9625 36.4188 99.5724 36.9618 100.324 36.9618ZM105.047 36.7312L105.233 37.1998C104.936 37.4081 104.683 37.4899 104.385 37.4899C103.656 37.4899 103.173 37.0585 103.173 36.2477V34.2021H102.377V33.726H103.173V32.5581H103.745V33.726H105.055V34.2021H103.745V36.2105C103.745 36.6866 104.013 36.9544 104.422 36.9544C104.631 36.9544 104.861 36.8651 105.047 36.7312ZM106.304 32.2383C106.528 32.2383 106.699 32.4168 106.699 32.6177C106.699 32.8334 106.528 32.997 106.304 32.997C106.081 32.997 105.918 32.8334 105.918 32.6177C105.918 32.4168 106.081 32.2383 106.304 32.2383ZM106.594 37.3932H106.022V33.726H106.594V37.3932ZM109.577 33.6442C110.656 33.6442 111.519 34.4327 111.519 35.5559C111.519 36.6791 110.656 37.4825 109.577 37.4825C108.484 37.4825 107.628 36.6791 107.628 35.5559C107.628 34.4327 108.484 33.6442 109.577 33.6442ZM109.577 36.9841C110.329 36.9841 110.961 36.4039 110.961 35.5559C110.961 34.7153 110.329 34.1426 109.577 34.1426C108.819 34.1426 108.179 34.7153 108.179 35.5559C108.179 36.4039 108.819 36.9841 109.577 36.9841ZM114.435 33.6367C115.32 33.6367 115.908 34.269 115.908 35.1988V37.3932H115.342V35.303C115.342 34.6186 114.933 34.1574 114.323 34.1574C113.557 34.1574 113.051 34.6781 113.051 35.6303V37.3932H112.486V33.726H113.051V34.336C113.349 33.8897 113.817 33.6367 114.435 33.6367Z" fill="#292B8D"/>
<path d="M15.5615 20.7339C15.5615 18.1652 17.6437 16.083 20.2124 16.083C22.781 16.083 24.8632 18.1652 24.8632 20.7339" stroke="white"/>
<path d="M24.8633 22.0481V22.8391V22.0481ZM24.8633 22.0481V20.7339V22.0481Z" stroke="white"/>
<path d="M15.5615 22.0481V22.8391V22.0481ZM15.5615 22.0481V20.7339V22.0481Z" stroke="white"/>
<path d="M20.2124 29.9177C19.0934 29.9177 18.1868 29.011 18.1868 27.892C18.1868 26.7735 19.0934 25.8664 20.2124 25.8664C21.3315 25.8664 22.2381 26.7735 22.2381 27.892C22.2381 29.011 21.3315 29.9177 20.2124 29.9177ZM14.3337 32.9452H26.0912C26.502 32.9452 26.8351 32.6121 26.8351 32.2013V23.5827C26.8351 23.1719 26.502 22.8389 26.0912 22.8389H14.3337C13.9229 22.8389 13.5898 23.1719 13.5898 23.5827V32.2013C13.5898 32.6121 13.9229 32.9452 14.3337 32.9452Z" fill="white"/>
</g>
<defs>
<clipPath id="clip0_2219:53120">
<rect width="127.2" height="49.0947" fill="white" transform="translate(0.200195 0.200195)"/>
</clipPath>
</defs>
</svg>