<svg id="svg" version="1.1" xmlns="http://www.w3.org/2000/svg" xmlns:xlink="http://www.w3.org/1999/xlink" width="400" height="139.2332497312791" viewBox="0, 0, 400,139.2332497312791"><g id="svgg"><path id="path0" d="M206.090 39.872 C 203.668 40.660,201.880 42.524,201.259 44.910 C 200.929 46.175,200.860 96.320,201.186 97.867 C 201.759 100.588,203.915 102.839,206.541 103.456 C 206.839 103.526,213.233 103.583,220.750 103.583 L 234.417 103.583 235.363 103.139 C 240.091 100.922,240.205 94.269,235.555 91.980 L 234.750 91.583 225.208 91.538 L 215.667 91.492 215.667 68.852 C 215.667 54.533,215.606 45.882,215.501 45.314 C 214.738 41.190,210.167 38.546,206.090 39.872 M263.917 39.597 C 261.663 40.142,260.742 40.558,259.401 41.638 C 257.649 43.050,256.742 44.513,255.923 47.250 C 255.676 48.075,255.367 49.087,255.236 49.500 C 255.106 49.913,253.498 55.275,251.662 61.417 C 249.827 67.558,248.226 72.883,248.105 73.250 C 247.873 73.953,247.661 74.656,246.828 77.500 C 246.546 78.462,246.207 79.587,246.074 80.000 C 245.942 80.412,245.117 83.150,244.241 86.083 C 243.365 89.017,242.578 91.642,242.492 91.917 C 240.912 96.957,240.740 97.812,240.995 99.396 C 241.905 105.050,249.006 107.116,252.917 102.866 C 254.043 101.642,254.261 101.138,255.246 97.500 C 255.408 96.904,255.638 96.079,255.757 95.667 C 255.877 95.254,256.110 94.372,256.275 93.707 L 256.575 92.497 265.329 92.540 L 274.083 92.583 274.470 93.917 C 274.895 95.381,275.297 96.809,275.501 97.583 C 276.350 100.804,277.033 102.306,278.059 103.213 C 282.638 107.257,289.544 104.535,289.804 98.585 C 289.868 97.117,289.835 96.940,289.030 94.401 C 288.567 92.943,287.048 87.962,285.654 83.333 C 284.259 78.704,282.982 74.467,282.816 73.917 C 282.649 73.367,282.240 72.017,281.907 70.917 C 281.574 69.817,281.153 68.429,280.970 67.833 C 280.788 67.237,280.574 66.525,280.495 66.250 C 280.416 65.975,280.089 64.887,279.769 63.833 C 279.449 62.779,278.201 58.654,276.994 54.667 C 275.788 50.679,274.729 47.192,274.642 46.917 C 274.554 46.642,274.451 46.279,274.414 46.110 C 273.559 42.228,267.805 38.657,263.917 39.597 M373.333 39.762 C 370.550 40.490,368.220 42.312,367.035 44.685 C 366.708 45.341,363.547 55.580,358.809 71.333 L 351.113 96.917 351.118 98.466 C 351.145 106.961,362.944 107.487,364.977 99.083 C 365.065 98.717,365.436 97.329,365.800 96.000 C 366.164 94.671,366.514 93.340,366.578 93.042 L 366.693 92.500 375.500 92.500 L 384.307 92.500 384.421 93.042 C 384.483 93.340,384.863 94.746,385.265 96.167 C 385.667 97.587,386.123 99.200,386.277 99.750 C 387.995 105.857,395.343 107.144,398.938 101.967 C 400.092 100.306,400.283 98.110,399.500 95.500 C 398.942 93.638,398.611 92.546,398.238 91.333 C 398.111 90.921,397.896 90.208,397.761 89.750 C 397.037 87.286,392.460 72.138,392.248 71.500 C 391.956 70.624,390.940 67.259,388.598 59.417 C 388.269 58.317,387.892 57.079,387.758 56.667 C 387.625 56.254,386.801 53.543,385.926 50.642 C 384.108 44.610,383.648 43.624,381.916 42.036 C 379.541 39.860,376.270 38.993,373.333 39.762 M301.443 41.325 C 299.474 41.962,297.954 43.323,297.046 45.262 L 296.583 46.250 296.540 72.883 L 296.497 99.516 296.999 100.722 C 299.575 106.909,308.573 106.483,310.781 100.069 C 311.027 99.356,311.071 98.235,311.124 91.375 L 311.185 83.500 316.889 83.500 L 322.593 83.500 327.255 92.773 C 330.684 99.595,332.104 102.256,332.625 102.839 C 336.621 107.313,343.728 104.915,344.281 98.906 C 344.446 97.115,344.204 96.505,340.067 88.276 C 337.908 83.982,336.166 80.451,336.196 80.429 C 336.226 80.408,336.693 80.077,337.235 79.695 C 352.101 69.213,347.397 45.766,329.549 41.387 C 327.682 40.929,302.836 40.874,301.443 41.325 M192.172 45.458 C 192.169 47.267,192.228 48.333,192.333 48.333 C 192.425 48.333,192.500 48.188,192.500 48.010 C 192.500 47.832,192.580 47.637,192.678 47.576 C 192.776 47.516,192.817 47.364,192.769 47.238 C 192.721 47.113,192.743 46.972,192.819 46.925 C 193.008 46.808,193.014 44.301,192.825 44.074 C 192.742 43.973,192.650 43.746,192.622 43.570 C 192.368 41.992,192.176 42.794,192.172 45.458 M14.824 48.125 L 14.250 48.750 14.875 48.176 C 15.219 47.860,15.500 47.578,15.500 47.551 C 15.500 47.423,15.359 47.543,14.824 48.125 M326.250 53.735 C 332.724 56.407,334.046 65.316,328.616 69.683 C 326.666 71.251,326.786 71.232,318.458 71.298 L 311.167 71.355 311.167 62.248 L 311.167 53.141 318.125 53.197 L 325.083 53.253 326.250 53.735 M265.577 59.956 C 265.640 60.301,266.102 62.271,266.603 64.333 C 267.105 66.396,267.703 68.871,267.933 69.833 C 268.683 72.979,269.345 75.714,269.843 77.737 C 270.113 78.829,270.333 79.823,270.333 79.945 C 270.333 80.124,269.387 80.167,265.362 80.167 L 260.390 80.167 260.597 79.208 C 260.710 78.681,261.045 77.237,261.340 76.000 C 261.634 74.762,261.971 73.337,262.087 72.833 C 262.203 72.329,262.802 69.779,263.418 67.167 C 264.834 61.167,264.771 61.440,265.024 60.221 C 265.261 59.082,265.405 59.014,265.577 59.956 M375.667 59.605 C 375.667 59.755,375.970 61.124,376.342 62.647 C 377.300 66.579,377.908 69.092,378.503 71.583 C 378.787 72.775,379.308 74.950,379.660 76.417 C 380.012 77.883,380.351 79.327,380.413 79.625 L 380.526 80.167 375.502 80.167 C 370.793 80.167,370.483 80.148,370.569 79.875 C 370.620 79.715,370.965 78.271,371.337 76.667 C 371.710 75.063,372.165 73.112,372.349 72.333 C 372.534 71.554,372.914 69.942,373.194 68.750 C 373.474 67.558,373.910 65.721,374.163 64.667 C 374.416 63.612,374.799 61.981,375.015 61.042 C 375.365 59.517,375.667 58.853,375.667 59.605 M142.381 83.917 C 142.382 84.375,142.415 84.543,142.453 84.289 C 142.491 84.036,142.490 83.661,142.451 83.456 C 142.411 83.251,142.380 83.458,142.381 83.917 M192.178 97.219 L 192.167 104.355 192.792 103.996 C 193.837 103.396,195.343 101.343,195.598 100.167 C 196.043 98.121,195.799 96.607,194.716 94.688 C 194.373 94.080,194.089 93.546,194.085 93.500 C 194.081 93.454,194.004 93.304,193.914 93.167 C 193.582 92.660,193.347 92.236,193.087 91.673 C 192.940 91.355,192.765 91.055,192.697 91.006 C 192.630 90.957,192.488 90.729,192.382 90.500 C 192.233 90.177,192.187 91.688,192.178 97.219 " stroke="none" fill="#512c93" fill-rule="evenodd"></path><path id="path1" d="M94.167 0.114 C 93.754 0.144,93.094 0.254,92.699 0.359 C 91.927 0.563,93.666 -1.492,68.757 28.653 C 67.287 30.432,65.133 33.032,63.972 34.430 L 61.862 36.972 62.006 37.611 C 62.085 37.962,62.383 39.487,62.668 41.000 C 63.172 43.678,63.412 44.930,63.914 47.500 C 64.048 48.188,64.266 49.313,64.399 50.000 C 65.167 53.998,65.212 54.170,65.442 53.979 C 65.566 53.876,65.667 53.730,65.667 53.654 C 65.667 53.578,66.267 52.492,67.000 51.240 C 67.733 49.988,68.333 48.940,68.333 48.912 C 68.333 48.884,68.658 48.311,69.055 47.639 C 69.452 46.967,69.966 46.079,70.197 45.667 C 70.537 45.057,72.432 41.715,73.835 39.250 C 73.992 38.975,74.698 37.750,75.405 36.527 C 76.112 35.304,76.885 33.954,77.123 33.527 C 77.361 33.100,77.881 32.200,78.278 31.528 C 78.675 30.856,79.000 30.273,79.000 30.233 C 79.000 30.193,79.175 29.880,79.389 29.538 C 79.602 29.196,80.003 28.504,80.278 28.000 C 80.554 27.496,81.811 25.292,83.072 23.104 C 84.332 20.915,85.557 18.777,85.793 18.354 C 86.030 17.930,86.548 17.033,86.945 16.361 C 87.342 15.689,87.667 15.111,87.667 15.078 C 87.667 15.044,88.203 14.095,88.857 12.970 C 89.512 11.845,90.189 10.674,90.360 10.369 C 90.532 10.063,90.980 9.274,91.357 8.615 C 91.734 7.956,92.232 7.079,92.466 6.667 C 92.699 6.254,93.214 5.367,93.611 4.695 C 94.008 4.022,94.333 3.444,94.333 3.410 C 94.333 3.376,94.548 2.985,94.810 2.540 C 95.536 1.309,96.167 0.164,96.167 0.077 C 96.167 -0.000,95.561 0.011,94.167 0.114 M43.734 28.138 C 22.860 40.992,20.562 42.594,14.904 48.242 C 9.749 53.389,6.226 58.315,2.922 64.999 C 1.432 68.012,1.440 67.848,2.663 70.442 C 3.391 71.985,6.436 76.816,6.689 76.828 C 6.747 76.831,6.619 76.398,6.404 75.866 C 4.389 70.877,6.747 65.166,13.250 59.286 C 19.044 54.049,26.198 49.572,41.730 41.469 C 56.103 33.970,57.914 32.831,59.672 30.188 L 60.156 29.459 55.953 26.963 C 53.641 25.590,51.518 24.326,51.234 24.153 L 50.718 23.838 43.734 28.138 M53.623 76.833 C 54.776 82.138,51.239 87.370,42.750 92.921 C 41.467 93.761,40.192 94.560,39.917 94.699 C 39.642 94.837,38.254 95.605,36.833 96.404 C 34.533 97.698,26.082 101.951,21.583 104.078 C 18.644 105.468,11.754 108.940,11.036 109.394 C 10.653 109.636,10.295 109.833,10.240 109.833 C 10.082 109.833,6.995 111.842,6.167 112.483 C 4.032 114.137,2.577 116.063,1.768 118.306 C 0.849 120.855,0.432 122.514,0.242 124.378 L 0.127 125.507 0.590 125.331 C 1.474 124.995,5.434 123.095,8.290 121.636 C 24.996 113.106,39.494 102.730,52.691 89.859 L 55.750 86.876 55.750 84.396 C 55.750 81.306,55.155 78.973,53.801 76.750 L 53.497 76.250 53.623 76.833 " stroke="none" fill="#1c1464" fill-rule="evenodd"></path><path id="path2" d="M86.417 0.589 C 84.858 0.705,81.633 0.922,79.250 1.072 C 76.867 1.222,73.154 1.456,71.000 1.592 C 68.846 1.727,65.358 1.948,63.250 2.083 C 61.142 2.217,57.579 2.443,55.333 2.583 C 53.087 2.724,49.525 2.949,47.417 3.084 C 45.308 3.218,41.746 3.444,39.500 3.586 C 23.998 4.565,22.264 4.681,22.200 4.745 C 22.172 4.773,24.647 6.467,27.699 8.509 C 30.752 10.552,34.274 12.918,35.525 13.767 C 36.776 14.617,37.830 15.282,37.866 15.245 C 37.903 15.208,46.517 12.848,57.008 9.999 C 89.569 1.158,92.081 0.472,92.153 0.402 C 92.279 0.278,89.300 0.375,86.417 0.589 M42.083 18.982 C 41.808 19.153,40.158 20.175,38.417 21.253 C 36.675 22.331,34.387 23.784,33.333 24.481 C 32.279 25.178,31.289 25.824,31.133 25.916 C 30.749 26.142,26.460 29.039,26.250 29.213 C 26.158 29.290,25.446 29.800,24.667 30.347 C 23.887 30.895,23.136 31.438,22.996 31.554 C 22.857 31.670,22.369 32.021,21.913 32.333 C 21.457 32.645,20.596 33.279,20.000 33.742 C 14.888 37.715,12.508 39.774,9.417 42.898 C 4.755 47.610,2.905 50.593,1.666 55.396 C 0.836 58.616,0.609 62.473,1.085 65.270 C 1.549 67.990,1.383 68.010,2.820 65.058 C 7.421 55.610,14.024 47.765,22.667 41.474 C 25.306 39.553,34.536 33.696,45.333 27.090 C 50.453 23.958,50.499 23.928,50.500 23.829 C 50.500 23.780,49.244 22.999,47.708 22.092 C 46.173 21.186,44.421 20.044,43.815 19.555 C 42.543 18.530,42.719 18.588,42.083 18.982 M55.877 84.200 C 55.883 87.088,56.094 86.729,52.196 90.440 C 36.692 105.196,20.302 116.382,1.667 124.927 C 0.887 125.284,0.195 125.653,0.128 125.747 C -0.178 126.171,0.202 134.425,0.543 134.766 C 0.881 135.103,23.951 121.040,33.333 114.778 C 48.626 104.570,53.949 99.642,55.643 94.127 C 56.605 90.994,56.795 83.239,55.930 82.375 C 55.899 82.343,55.875 83.165,55.877 84.200 " stroke="none" fill="#8343ab" fill-rule="evenodd"></path><path id="path3" d="M72.083 5.928 C 50.924 11.686,50.648 11.761,49.500 12.083 C 48.537 12.353,47.680 12.586,42.417 14.007 C 40.033 14.650,38.016 15.197,37.934 15.222 C 37.785 15.266,41.838 18.206,42.656 18.647 C 42.891 18.774,43.458 19.195,43.917 19.582 C 44.375 19.970,46.137 21.113,47.833 22.122 C 49.529 23.131,52.996 25.194,55.537 26.707 L 60.156 29.458 59.672 30.188 C 57.914 32.831,56.104 33.970,41.730 41.469 C 26.198 49.572,19.044 54.049,13.250 59.286 C 6.989 64.947,4.530 70.561,6.222 75.333 C 6.466 76.021,6.684 76.653,6.708 76.738 C 6.803 77.085,7.301 77.566,8.212 78.191 C 9.188 78.860,9.906 79.250,14.833 81.790 C 16.346 82.570,18.108 83.490,18.750 83.834 C 19.392 84.179,21.192 85.116,22.750 85.917 C 24.308 86.719,26.183 87.694,26.917 88.085 C 31.762 90.667,39.641 94.667,39.882 94.667 C 39.999 94.667,41.218 93.931,42.589 93.032 C 51.061 87.479,54.832 82.091,53.692 77.171 C 53.596 76.761,53.540 76.405,53.566 76.379 C 53.714 76.231,55.428 80.264,55.565 81.083 C 55.580 81.175,55.638 81.325,55.693 81.417 C 57.131 83.801,56.753 91.846,55.007 96.040 C 52.899 101.105,42.630 109.256,22.583 121.775 C 16.387 125.644,1.843 134.314,0.554 134.906 C 0.538 134.913,0.677 135.631,0.862 136.501 C 1.047 137.371,1.237 138.291,1.285 138.544 C 1.419 139.253,1.560 139.242,3.124 138.401 C 3.927 137.970,5.146 137.319,5.833 136.955 C 6.521 136.592,7.458 136.088,7.917 135.837 C 8.375 135.585,9.200 135.134,9.750 134.834 C 10.300 134.534,11.237 134.007,11.833 133.662 C 12.429 133.318,13.292 132.831,13.750 132.580 C 15.949 131.372,23.152 127.074,26.000 125.269 C 26.962 124.658,27.881 124.115,28.042 124.060 C 28.202 124.006,28.333 123.895,28.333 123.814 C 28.333 123.733,28.411 123.667,28.506 123.667 C 28.645 123.667,34.022 120.152,36.220 118.624 C 38.436 117.084,43.494 113.378,43.667 113.167 C 43.712 113.111,44.313 112.622,45.000 112.080 C 45.688 111.539,46.335 111.018,46.439 110.923 C 46.543 110.828,47.068 110.377,47.606 109.922 C 50.623 107.364,53.970 103.804,55.638 101.376 C 58.703 96.916,59.373 90.341,57.408 84.000 C 56.557 81.254,54.249 76.593,53.535 76.176 C 53.378 76.085,53.311 76.008,53.386 76.005 C 53.589 75.998,52.880 75.036,51.925 74.025 C 50.412 72.422,49.484 71.789,45.833 69.874 C 44.871 69.369,43.783 68.789,43.417 68.584 C 43.050 68.380,42.075 67.854,41.250 67.416 C 40.425 66.978,39.300 66.377,38.750 66.081 C 38.200 65.784,36.850 65.073,35.750 64.500 C 34.650 63.927,33.525 63.327,33.250 63.167 C 32.975 63.006,31.775 62.369,30.583 61.750 C 29.392 61.132,28.342 60.570,28.250 60.503 C 28.158 60.435,27.108 59.872,25.917 59.252 C 24.725 58.632,23.278 57.866,22.701 57.550 L 21.653 56.976 22.035 56.686 C 22.245 56.527,23.654 55.703,25.167 54.856 C 26.679 54.009,28.104 53.207,28.333 53.073 C 29.086 52.634,40.007 47.238,43.667 45.497 C 48.353 43.268,54.352 40.248,56.303 39.135 C 58.832 37.695,59.047 37.564,60.343 36.682 L 61.583 35.839 61.761 36.367 L 61.939 36.895 64.261 34.085 C 65.538 32.539,67.489 30.182,68.595 28.846 C 69.702 27.510,75.281 20.754,80.993 13.833 C 86.706 6.912,91.532 1.081,91.719 0.875 C 91.905 0.669,92.026 0.507,91.987 0.515 C 91.948 0.523,82.992 2.959,72.083 5.928 M314.281 53.291 C 316.039 53.318,318.964 53.318,320.781 53.291 C 322.597 53.265,321.158 53.242,317.583 53.242 C 314.008 53.242,312.522 53.264,314.281 53.291 M4.464 73.917 C 4.818 74.623,6.272 76.667,6.421 76.667 C 6.513 76.667,4.573 73.704,4.293 73.417 C 4.203 73.325,4.280 73.550,4.464 73.917 " stroke="none" fill="#540c7c" fill-rule="evenodd"></path><path id="path4" d="M114.667 39.578 C 114.529 39.611,113.742 39.727,112.917 39.835 C 101.341 41.363,94.337 49.813,95.918 60.344 C 97.018 67.667,102.051 71.769,114.500 75.490 C 115.188 75.696,116.350 76.046,117.083 76.270 C 117.817 76.493,118.792 76.787,119.250 76.923 C 121.565 77.612,122.375 77.912,123.779 78.601 C 127.673 80.514,128.728 82.992,127.388 87.083 C 125.449 93.002,116.135 94.930,110.864 90.503 C 109.792 89.603,107.688 87.111,107.674 86.725 C 107.656 86.236,105.324 84.045,104.230 83.490 C 98.499 80.580,92.261 87.087,95.113 93.000 C 102.860 109.062,132.237 109.279,140.247 93.333 C 143.487 86.883,143.149 78.941,139.420 73.918 C 136.118 69.471,131.912 67.225,120.417 63.770 C 112.916 61.515,110.352 59.863,110.337 57.276 C 110.299 50.621,121.057 49.738,125.217 56.055 C 127.633 59.724,131.791 60.561,135.193 58.064 C 142.052 53.029,134.765 42.526,122.652 39.990 C 121.057 39.655,115.539 39.371,114.667 39.578 M152.833 39.752 C 149.978 40.542,147.976 42.767,147.510 45.667 C 147.277 47.115,147.273 97.274,147.505 98.917 C 148.348 104.872,155.679 107.235,159.994 102.942 C 161.996 100.951,162.167 99.938,162.167 90.057 L 162.167 82.639 163.443 81.194 C 164.146 80.400,165.214 79.190,165.818 78.505 C 166.422 77.820,167.221 76.930,167.593 76.527 L 168.269 75.794 169.162 77.355 C 169.653 78.214,170.643 79.916,171.361 81.136 C 172.079 82.357,172.667 83.375,172.667 83.398 C 172.667 83.421,173.464 84.822,174.438 86.512 C 175.413 88.201,176.608 90.304,177.095 91.186 C 177.582 92.067,178.397 93.483,178.907 94.332 C 179.416 95.181,179.833 95.902,179.833 95.933 C 179.833 95.965,180.180 96.574,180.604 97.287 C 181.028 98.000,181.599 98.996,181.873 99.500 C 182.148 100.004,182.424 100.454,182.487 100.500 C 182.550 100.546,182.697 100.818,182.813 101.106 C 182.930 101.393,183.273 101.899,183.576 102.231 C 183.880 102.562,184.089 102.833,184.042 102.833 C 183.994 102.833,184.171 102.999,184.436 103.202 C 184.700 103.405,184.977 103.668,185.050 103.786 C 185.123 103.904,185.321 104.000,185.490 104.000 C 185.659 104.000,185.843 104.117,185.898 104.261 C 185.953 104.404,186.067 104.478,186.151 104.426 C 186.236 104.374,186.330 104.405,186.361 104.494 C 186.392 104.584,186.567 104.685,186.750 104.720 C 186.933 104.755,187.211 104.839,187.367 104.906 C 187.523 104.974,187.729 104.981,187.825 104.922 C 187.921 104.862,188.000 104.887,188.000 104.978 C 188.000 105.069,188.476 105.136,189.083 105.130 C 189.679 105.124,190.167 105.050,190.167 104.966 C 190.167 104.882,190.227 104.851,190.302 104.897 C 190.503 105.022,191.833 104.651,191.833 104.470 C 191.833 104.384,191.908 104.360,192.000 104.417 C 192.406 104.668,192.205 90.273,191.792 89.474 C 191.585 89.076,191.360 88.725,191.292 88.694 C 191.223 88.664,191.167 88.539,191.167 88.417 C 191.167 88.294,191.110 88.169,191.042 88.139 C 190.973 88.108,190.663 87.577,190.353 86.958 C 190.044 86.340,189.712 85.833,189.617 85.833 C 189.522 85.833,189.487 85.791,189.539 85.739 C 189.591 85.687,189.380 85.218,189.070 84.697 C 188.759 84.176,188.384 83.487,188.236 83.167 C 188.088 82.846,187.783 82.340,187.558 82.042 C 187.334 81.744,187.210 81.499,187.283 81.497 C 187.357 81.496,187.342 81.440,187.250 81.372 C 187.158 81.305,186.933 80.952,186.750 80.588 C 186.567 80.224,186.023 79.270,185.542 78.467 C 185.060 77.665,184.667 76.946,184.667 76.869 C 184.667 76.792,184.535 76.581,184.375 76.400 C 184.215 76.219,184.067 75.986,184.046 75.883 C 184.008 75.686,179.897 68.365,179.224 67.295 C 179.009 66.953,178.833 66.633,178.833 66.583 C 178.833 66.534,178.646 66.196,178.417 65.833 C 178.188 65.470,178.000 65.097,178.000 65.004 C 178.000 64.859,180.053 62.391,180.569 61.917 C 180.668 61.825,181.200 61.227,181.750 60.588 C 182.300 59.949,183.105 59.049,183.538 58.588 C 183.972 58.127,184.328 57.698,184.330 57.634 C 184.332 57.571,184.690 57.157,185.125 56.714 C 185.560 56.272,186.217 55.566,186.583 55.146 C 188.509 52.938,189.278 52.068,189.542 51.798 C 189.702 51.634,189.833 51.464,189.833 51.421 C 189.833 51.377,190.252 50.908,190.764 50.379 C 192.286 48.805,192.212 49.050,192.178 45.646 C 192.158 43.682,192.078 42.506,191.949 42.274 C 191.637 41.711,190.453 40.500,190.215 40.500 C 190.097 40.500,190.000 40.443,190.000 40.373 C 190.000 40.174,188.649 39.638,188.394 39.736 C 188.269 39.784,188.167 39.768,188.167 39.702 C 188.167 39.535,185.310 39.608,185.184 39.779 C 185.129 39.855,184.933 39.940,184.750 39.968 C 184.201 40.052,182.945 41.019,182.003 42.083 C 181.517 42.633,180.885 43.346,180.599 43.667 C 180.313 43.987,179.292 45.150,178.331 46.250 C 177.370 47.350,176.502 48.325,176.402 48.417 C 176.302 48.508,175.367 49.558,174.324 50.750 C 173.282 51.942,172.389 52.954,172.339 53.000 C 172.290 53.046,171.996 53.383,171.686 53.750 C 171.376 54.117,170.813 54.754,170.435 55.167 C 170.056 55.579,168.888 56.892,167.839 58.083 C 166.790 59.275,165.816 60.369,165.674 60.514 C 165.533 60.659,164.704 61.584,163.833 62.569 L 162.250 64.360 162.162 54.889 C 162.065 44.580,162.085 44.796,161.077 43.083 C 159.474 40.359,155.884 38.908,152.833 39.752 M55.872 84.333 C 55.872 84.654,55.906 84.785,55.948 84.625 C 55.990 84.465,55.990 84.202,55.948 84.042 C 55.906 83.881,55.872 84.012,55.872 84.333 M56.556 87.833 C 56.556 88.521,56.585 88.802,56.621 88.458 C 56.657 88.115,56.657 87.552,56.621 87.208 C 56.585 86.865,56.556 87.146,56.556 87.833 M54.163 88.458 L 52.750 89.917 54.208 88.504 C 55.563 87.191,55.743 87.000,55.621 87.000 C 55.596 87.000,54.940 87.656,54.163 88.458 " stroke="none" fill="#642b93" fill-rule="evenodd"></path></g></svg>